<?xml version="1.0" encoding="utf-8"?>
<!-- Generator: Adobe Illustrator 27.8.0, SVG Export Plug-In . SVG Version: 6.00 Build 0)  -->
<svg version="1.1" id="Layer_1" xmlns="http://www.w3.org/2000/svg" xmlns:xlink="http://www.w3.org/1999/xlink" x="0px" y="0px"
	 viewBox="0 0 1315.2 215.1" style="enable-background:new 0 0 1315.2 215.1;" xml:space="preserve">
<style type="text/css">
	.st0{fill:#FCB817;stroke:#FCB817;stroke-width:1.8;stroke-miterlimit:10;}
	.st1{fill:#FAB818;stroke:#FAB818;stroke-width:3.6;stroke-miterlimit:10;}
	.st2{fill:#FAB818;}
</style>
<text transform="matrix(1 0 0 1 4.7143 1746.2507)" style="font-family:'InkwellScript-Thin'; font-size:143.6637px; letter-spacing:7;">Prashant Rana</text>
<text transform="matrix(1 0 0 1 -1626.3329 1748.397)" style="font-family:'AndaleMono'; font-size:143.6637px; letter-spacing:7;">prashant rana</text>
<image style="overflow:visible;" width="125" height="122" xlink:href="578407E8.jpg"  transform="matrix(2.3187 0 0 2.3187 1550.9095 1630.3696)">
</image>
<g>
	<path class="st0" d="M621.7,1088.5c0,0-33.1,2.5-15.9-26.3c16.2-27.2,19.2-21.6,19.2-21.6s25.8,37.5,17.4,53
		c-10.9,19.9-40.3,35.4-62.9-1.9c-21.3-35.3,35.2-58.6,25.3-96.2c-0.5-5.6,9.6-2.1,27.2,16.4c21.9,22.9,60.5,59.1,17.4,103.7
		c0,0-2.8,8.4,8.9,3.3c15.5-6.8,43.2-61-23.5-113.5c0,0-25.9-21.2-28.1-22c-2-0.7-11.5-9.9-8.9,9.9c2.3,17.6-4.2,31-25.8,63.8
		c-21.5,32.7,22,86.3,63.3,55.8s-12.2-84.9-12.2-84.9s-4.2-3.3-7,4.7c-2.8,8-9.9,15-17.4,27.2s-12.7,34.7,21.1,35.2"/>
	<path class="st0" d="M649.6,961.1c0,0-4,15.5-10.6,21.6c-6.6,6.1,2.8,9.1,7,3.5c4.2-5.6,12.2-19,10.8-22.5
		C655.4,960.2,655.2,959.3,649.6,961.1z"/>
	<path class="st0" d="M623.1,950.3c0,0,0.3,12.2-3.3,18.1c-3.6,5.9,4,6.2,5.9,1.1s5-16.5,3.3-18.8S626.8,947.8,623.1,950.3z"/>
	<path class="st0" d="M548.1,1000.4c0,0,16-0.2,23.6,4.6c7.6,4.8,8.1-5.1,1.6-7.7s-21.5-6.9-24.5-4.6
		C545.7,995,544.9,995.4,548.1,1000.4z"/>
	<path class="st0" d="M579.8,974.7c0,0-11.3-4.8-15.1-10.4c-3.9-5.7-7.2,1.1-3.5,4.9c3.8,3.8,13,11.4,15.8,10.7
		C579.8,979.2,580.6,979.2,579.8,974.7z"/>
</g>
<image style="overflow:visible;" width="572" height="193" xlink:href="578407F5.jpg"  transform="matrix(1.7687 0 0 1.7687 547.5539 3216.821)">
</image>
<path class="st1" d="M1261.6,931.2l-0.9-2.1c-4.6-10-8.9-25.4-4.1-41.4c0.5-1.7,1.3-3.6,2-5.3l5.1,2.4l16.4-34.9l-50.1-23.6
	l-16.4,35l4.5,2.1c-0.7,1.6-1.5,3.2-2.4,4.8c-8.6,14.7-23.5,21.6-34.6,24.7l-2.2,0.6l16.9,71.3L1261.6,931.2z M1232.4,832.6
	l41.4,19.5l-12.4,26.5l-0.8-0.4l-40.5-19L1232.4,832.6z M1219.9,870.5c1-1.7,1.8-3.4,2.6-5.1l31.8,14.9c-0.9,1.9-1.5,3.9-2.2,5.9
	c-5,16.3-1.2,31.9,3.3,42.7l-53.2,27.1l19.3-41.1l0.4,0c1.1,0.1,2.3,0,3.4-0.4c2-0.7,3.5-2.2,4.4-4c0.9-1.9,1-4.1,0.3-6
	c-0.7-2-2.2-3.5-4-4.4c-1.9-0.9-4.1-1-6-0.3c-2,0.7-3.5,2.2-4.4,4c-0.9,1.9-1,4.1-0.3,6c0.5,1.2,1.1,2.2,2.1,3.2l-19.2,41
	l-13.6-57.3C1196.2,893.1,1211,885.6,1219.9,870.5L1219.9,870.5z M1219.8,906c0.3-0.8,1-1.3,1.8-1.6c0.5-0.2,0.8-0.2,1.3-0.1
	c0.4,0,0.7,0.2,1,0.3c0.8,0.3,1.3,1,1.6,1.8c0.3,0.7,0.2,1.6-0.1,2.4c-0.3,0.8-1,1.3-1.8,1.6c-0.7,0.3-1.6,0.2-2.4-0.1
	s-1.3-1-1.6-1.8C1219.5,907.5,1219.6,906.6,1219.8,906L1219.8,906z"/>
<image style="overflow:visible;" width="1600" height="1200" xlink:href="578407F6.jpg"  transform="matrix(0.6424 0 0 0.6424 1681.7057 3350.1267)">
</image>
<image style="overflow:visible;" width="800" height="600" xlink:href="578407F7.jpg"  transform="matrix(1.4298 0 0 1.4298 435.7483 3739.6416)">
</image>
<path class="st2" d="M890,4169.6"/>
<text transform="matrix(1 0 0 1 -1375.8794 2412.998)" style="font-family:'MaisonNeue-Book'; font-size:143.6637px; letter-spacing:7;">Prashant Rana</text>
<image style="overflow:visible;" width="125" height="122" xlink:href="578407F8.jpg"  transform="matrix(2.3187 0 0 2.3187 -1062.8947 719.1356)">
</image>
<g>
	<g>
		<path d="M323.6,58.4h38.8c21.1,0,33.6,11.9,33.6,31c0,19.4-12.4,30.7-33.6,30.7h-27V159h-11.8V58.4z M361.6,109
			c15.4,0,22.4-6.2,22.4-19.5s-7.3-19.8-22.4-19.8h-26.3V109H361.6z"/>
		<path d="M416.2,82.8h10.6v6.3h0.3c2.9-4.7,8.5-7.6,15.8-7.6c2.3,0,4.9,0.4,7.6,1.1l-2.4,11.6c-2.7-0.9-5.3-1.3-7.5-1.3
			c-9.1,0-13.2,6-13.2,20.3V159h-11.2V82.8z"/>
		<path d="M488.2,115.4c14.8-3.6,19.4-6.8,19.4-12.9c0-7-6.3-11.6-15.7-11.6c-9.9,0-17,6.2-19.1,16.4l-11.3-2.2
			c1.3-7.5,4.6-13.4,10.2-17.8c5.6-4.5,12.4-6.6,20.3-6.6c17.1,0,27.4,9.3,27.4,24.7V159h-10.5v-8h-0.3
			c-4.5,6.3-12.5,10.2-22.1,10.2c-15.4,0-25-8.3-25-21.5C461.5,126.8,469.1,120,488.2,115.4z M508.2,116.2h-0.3
			c-1.6,3.6-6.5,6.2-16.7,8.9c-13.4,3.4-18.5,7.3-18.5,13.8c0,7.6,5.3,11.8,14.7,11.8c12.2,0,20.8-7.2,20.8-17.4V116.2z"/>
		<path d="M551.4,131c2.3,13.9,8.9,19.7,22.8,19.7c10.3,0,16.8-4.2,16.8-10.9c0-7.5-4.5-10.5-21-15.4c-19.5-5.7-26-10.9-26-21.8
			c0-12.6,11.1-21.8,26.6-21.8c15.1,0,26.6,8.8,29.5,22.7l-10.9,2.4c-2.7-9.6-8.9-14.7-18.5-14.7c-9.2,0-15.4,4.5-15.4,10.9
			c0,5.3,4.3,8.2,18.5,12.4c21.4,6.3,28.6,12.5,28.6,24.9c0,13.2-11.1,21.8-28.2,21.8c-19.7,0-32-10.2-33.8-28.2L551.4,131z"/>
		<path d="M624.1,54.1h11.2v35.8h0.3c4.2-5.3,12.9-9.2,21.1-9.2c17.7,0,28.9,11.2,28.9,28.9V159h-11.2v-47.8c0-12.5-7.3-20-19-20
			c-12.1,0-20.1,8-20.1,20V159h-11.2V54.1z"/>
		<path d="M734.9,115.4c14.8-3.6,19.4-6.8,19.4-12.9c0-7-6.3-11.6-15.7-11.6c-9.9,0-17,6.2-19.1,16.4l-11.3-2.2
			c1.3-7.5,4.6-13.4,10.2-17.8c5.6-4.5,12.4-6.6,20.3-6.6c17.1,0,27.4,9.3,27.4,24.7V159h-10.5v-8h-0.3
			c-4.5,6.3-12.5,10.2-22.1,10.2c-15.4,0-25-8.3-25-21.5C708.1,126.8,715.7,120,734.9,115.4z M754.8,116.2h-0.3
			c-1.6,3.6-6.5,6.2-16.7,8.9c-13.4,3.4-18.5,7.3-18.5,13.8c0,7.6,5.3,11.8,14.7,11.8c12.2,0,20.8-7.2,20.8-17.4V116.2z"/>
		<path d="M791.5,82.8h10.9v7h0.3c4.6-5.6,13.2-9.2,21.4-9.2c17.7,0,28.9,11.3,28.9,29V159h-11.2v-47.8c0-12.5-7.3-20-19-20
			c-12.1,0-20.1,8-20.1,20V159h-11.2V82.8z"/>
		<path d="M893,92.9v48.7c0,5,2.2,6.9,8.3,6.9h6.3V159h-7.2c-13.8,0-18.7-4.5-18.7-17.5V92.9h-11.5V82.8h11.5V65.6H893v17.2h18.7
			v10.1H893z"/>
		<path d="M1026.5,117.6l22.1,41.4h-13.9l-21.3-40.8h-20.1V159h-11.8V58.4h36.6c20.8,0,33.5,11.2,33.5,29.7
			c0,15.9-9.2,26.4-25.1,29.2V117.6z M1017.2,107c14.8,0,22.6-6.6,22.6-18.8s-7.6-18.5-22.6-18.5h-23.8V107H1017.2z"/>
		<path d="M1097.2,115.4c14.8-3.6,19.4-6.8,19.4-12.9c0-7-6.3-11.6-15.7-11.6c-9.9,0-17,6.2-19.1,16.4l-11.3-2.2
			c1.3-7.5,4.6-13.4,10.2-17.8c5.6-4.5,12.4-6.6,20.3-6.6c17.1,0,27.4,9.3,27.4,24.7V159h-10.5v-8h-0.3
			c-4.5,6.3-12.5,10.2-22.1,10.2c-15.4,0-25-8.3-25-21.5C1070.5,126.8,1078.1,120,1097.2,115.4z M1117.1,116.2h-0.3
			c-1.6,3.6-6.5,6.2-16.7,8.9c-13.4,3.4-18.5,7.3-18.5,13.8c0,7.6,5.3,11.8,14.7,11.8c12.2,0,20.8-7.2,20.8-17.4V116.2z"/>
		<path d="M1153.8,82.8h10.9v7h0.3c4.6-5.6,13.2-9.2,21.4-9.2c17.7,0,28.9,11.3,28.9,29V159h-11.2v-47.8c0-12.5-7.3-20-19-20
			c-12.1,0-20.1,8-20.1,20V159h-11.2V82.8z"/>
		<path d="M1264.5,115.4c14.8-3.6,19.4-6.8,19.4-12.9c0-7-6.3-11.6-15.7-11.6c-9.9,0-17,6.2-19.1,16.4l-11.3-2.2
			c1.3-7.5,4.6-13.4,10.2-17.8c5.6-4.5,12.4-6.6,20.3-6.6c17.1,0,27.4,9.3,27.4,24.7V159h-10.5v-8h-0.3
			c-4.5,6.3-12.5,10.2-22.1,10.2c-15.4,0-25-8.3-25-21.5C1237.8,126.8,1245.4,120,1264.5,115.4z M1284.5,116.2h-0.3
			c-1.6,3.6-6.5,6.2-16.7,8.9c-13.4,3.4-18.5,7.3-18.5,13.8c0,7.6,5.3,11.8,14.7,11.8c12.2,0,20.8-7.2,20.8-17.4V116.2z"/>
	</g>
	<g>
		<path class="st2" d="M76.6,33.8h-66c0,0-2.7,0.8-2.7,3.7v112.6c0,0-0.1,3.5,5,3.5c5.1-0.1,48.4,0,48.4,0v29.5
			c0,0,2.6,4.9,12.9,3.7c10.4-1.2,43.4-6.1,52.8-32.6V67.8C127.1,67.8,123,40.4,76.6,33.8z M66,99c-3.2,0-4.7,2.7-4.7,2.7v40.8H17.6
			V44.7c0,0,57.7-0.2,62.1,0.5c4.4,0.6,36.9,5.4,35.7,29.1C114.1,98,69.2,99,66,99z M115.6,150.8c-3.3,21.4-43,24.5-43,24.5v-64.8
			c32.9-0.9,43.3-15.7,43.3-15.7S118.9,129.4,115.6,150.8z"/>
		<path class="st2" d="M211.6,34.5l-69-0.4c0,0-3.5,0.2-4.6,2.9v112.3c0,0,1.2,4.8,5.8,4.4c4.6-0.4,82.1,0.2,82.1,0.2l22.9,31.4
			c0,0,6.2,6,9.4-2.3V68C258.2,68,254.9,41.8,211.6,34.5z M148.6,142.7V44.1h0.6c0,0,38.5,0.2,56.5,0.8
			c17.9,0.6,51.3,15.4,38.2,35.4c-13.1,20-40.4,17-47.1,18.8c-6.7,1.8-2.9,8.3-2.9,8.3l25.6,35.2H148.6z M209.1,110.4
			c33.1-3.7,38.1-16.6,38.1-16.6l0.6,71.1L209.1,110.4z"/>
	</g>
</g>
<text transform="matrix(1 0 0 1 -595.9818 2773.3042)" style="font-family:'MaisonNeue-Book'; font-size:143.6637px; letter-spacing:7;">Prashant Rana</text>
<g>
	<path class="st2" d="M-830.6,2648.1h-66c0,0-2.7,0.8-2.7,3.7v112.6c0,0-0.1,3.5,5,3.5s48.4,0,48.4,0v29.5c0,0,2.6,4.9,12.9,3.7
		c10.4-1.2,43.4-6.1,52.8-32.6v-86.4C-780.1,2682.1-784.1,2654.7-830.6,2648.1z M-841.2,2713.4c-3.2,0-4.7,2.7-4.7,2.7v40.8h-43.7
		V2659c0,0,57.7-0.2,62.1,0.5c4.4,0.6,36.9,5.4,35.7,29.1C-793.1,2712.3-838,2713.4-841.2,2713.4z M-791.6,2765.1
		c-3.3,21.4-43,24.5-43,24.5v-64.8c32.9-0.9,43.3-15.7,43.3-15.7S-788.3,2743.7-791.6,2765.1z"/>
	<path class="st2" d="M-695.6,2648.9l-69-0.4c0,0-3.5,0.2-4.6,2.9v112.3c0,0,1.2,4.8,5.8,4.4c4.6-0.4,82.1,0.2,82.1,0.2l22.9,31.4
		c0,0,6.2,6,9.4-2.3v-115C-649,2682.3-652.3,2656.1-695.6,2648.9z M-758.6,2757v-98.6h0.6c0,0,38.5,0.2,56.5,0.8
		c17.9,0.6,51.3,15.4,38.2,35.4c-13.1,20-40.4,17-47.1,18.8s-2.9,8.3-2.9,8.3l25.6,35.2H-758.6z M-698.1,2724.8
		c33.1-3.7,38.1-16.6,38.1-16.6l0.6,71.1L-698.1,2724.8z"/>
</g>
<path class="st2" d="M-1452.9,2386.7c34.1-20.4,38.2-53.1,23.8-80c-14.4-26.9-43.1-29.1-43.1-29.1l-51.5,0.1
	c-14.7,1.6-17.1,16-17.1,16l-0.1,7.7c-19.6-2.3-23.6,14.5-23.6,14.5v114.5c20,27,34.4-2.6,34.4-2.6V2312h56
	c4.4,0.7,21.5,8.5,18.9,26.3s-20.7,20.2-20.7,20.2l-26.3,0.7c-11.3,2-14.7,14.5-14.7,14.5v54.4c3.1,10.4,10.8,15.5,21.4,13.4
	c10.6-2.1,12.9-13.5,12.9-13.5v-25.8l32.3,37.1c12.1,7,19.8,0.7,24.2-6.5c4.4-7.2-1-15.7-1-15.7L-1452.9,2386.7z M-1540.9,2425.9
	c0,0-0.7,6.2-7.2,5.7c-6.5-0.5-6-4.9-6-4.9v-108.2c0,0,0.8-8.7,13.2-6.5V2425.9z M-1439,2431.4c0,0-2.1,1.3-5.5-1.2l-34.2-39.6
	c0,0-9.8-6.9-14.2,3.7l-0.2,31.7c0,0-1.2,6.9-7.1,5.9c-5.9-1.1-6.3-5-6.3-6.4c0-1.5,0-49.3,0-49.3s-0.4-6,8.2-7.3
	c0,0,22.8-0.2,23.3-0.2c0.5,0,10-1.8,13.5-4.7c3.6-2.9,25-16.3,12.6-44.7c0,0-6.5-14.7-26.8-17.6l-54.8-0.4v-6.1
	c0,0,0.9-6.5,7.8-7.4c7-0.9,47.4,0,47.4,0s26.3,0.4,39,26.3c12.6,25.9-0.9,52.2-22.4,64.2c0,0-9.7,3.9-4.7,12.2l27.5,32.2
	C-1435.8,2422.5-1432,2430-1439,2431.4z"/>
</svg>
